<?xml version="1.0" encoding="UTF-8"?>
<svg width="400" height="300" viewBox="0 0 400 300" fill="none" xmlns="http://www.w3.org/2000/svg">
  <rect width="400" height="300" fill="#F9FAFB"/>
  <path d="M200 80C166.863 80 140 106.863 140 140C140 173.137 166.863 200 200 200C233.137 200 260 173.137 260 140C260 106.863 233.137 80 200 80ZM200 190C172.386 190 150 167.614 150 140C150 112.386 172.386 90 200 90C227.614 90 250 112.386 250 140C250 167.614 227.614 190 200 190Z" fill="#3B82F6"/>
  <path d="M200 110C187.85 110 178 119.85 178 132C178 144.15 187.85 154 200 154C212.15 154 222 144.15 222 132C222 119.85 212.15 110 200 110ZM200 144C193.373 144 188 138.627 188 132C188 125.373 193.373 120 200 120C206.627 120 212 125.373 212 132C212 138.627 206.627 144 200 144Z" fill="#3B82F6"/>
  <path d="M200 160C179.55 160 160 169.55 160 190V200H240V190C240 169.55 220.45 160 200 160ZM230 190H170C170 175.05 185.05 170 200 170C214.95 170 230 175.05 230 190Z" fill="#3B82F6"/>
  <path d="M120 230H280" stroke="#3B82F6" stroke-width="4" stroke-linecap="round"/>
  <path d="M140 250H260" stroke="#3B82F6" stroke-width="4" stroke-linecap="round"/>
  <path d="M160 270H240" stroke="#3B82F6" stroke-width="4" stroke-linecap="round"/>
  <path d="M310 120L330 140L310 160" stroke="#3B82F6" stroke-width="4" stroke-linecap="round" stroke-linejoin="round"/>
  <path d="M90 120L70 140L90 160" stroke="#3B82F6" stroke-width="4" stroke-linecap="round" stroke-linejoin="round"/>
</svg>
